<?xml version="1.0" standalone="no"?>
<!DOCTYPE svg PUBLIC "-//W3C//DTD SVG 20010904//EN"
 "http://www.w3.org/TR/2001/REC-SVG-20010904/DTD/svg10.dtd">
<svg version="1.0" xmlns="http://www.w3.org/2000/svg"
 width="1440.000000pt" height="1440.000000pt" viewBox="0 0 1440.000000 1440.000000"
 preserveAspectRatio="xMidYMid meet">
<metadata>
Created by potrace 1.14, written by Peter Selinger 2001-2017
</metadata>
<g transform="translate(0.000000,1440.000000) scale(0.100000,-0.100000)"
fill="#000000" stroke="none">
<path d="M707 14389 c-326 -38 -592 -272 -679 -599 l-23 -85 0 -6505 0 -6505
22 -85 c77 -290 292 -505 583 -582 l85 -23 6505 0 6505 0 85 22 c290 77 505
292 582 583 l23 85 0 6505 0 6505 -22 85 c-76 287 -287 500 -578 582 l-80 23
-6470 1 c-3558 1 -6501 -2 -6538 -7z m5611 -1416 c2 -8 21 -13 48 -13 24 0 44
-4 44 -9 0 -5 14 -11 30 -15 17 -3 44 -9 60 -12 17 -4 30 -13 30 -20 0 -9 12
-14 35 -14 19 0 35 -4 35 -10 0 -5 11 -10 25 -10 14 0 25 -4 25 -10 0 -5 9
-10 19 -10 11 0 26 -7 35 -15 8 -8 24 -15 35 -15 12 0 21 -4 21 -10 0 -5 11
-10 25 -10 14 0 25 -4 25 -9 0 -5 11 -12 25 -15 14 -4 25 -11 25 -16 0 -6 9
-10 20 -10 11 0 20 -4 20 -8 0 -4 16 -14 36 -21 19 -7 38 -19 41 -27 3 -8 14
-14 24 -14 10 0 19 -4 19 -8 0 -5 16 -14 35 -22 19 -8 35 -20 35 -27 0 -7 9
-13 20 -13 11 0 20 -4 20 -10 0 -5 5 -10 11 -10 7 0 22 -11 35 -25 13 -14 30
-25 39 -25 8 0 15 -4 15 -10 0 -5 5 -10 11 -10 14 0 39 -25 39 -39 0 -6 9 -11
20 -11 11 0 20 -4 20 -10 0 -5 5 -10 11 -10 14 0 39 -25 39 -39 0 -6 5 -11 10
-11 6 0 22 -10 35 -22 36 -34 53 -48 60 -48 8 0 35 -27 35 -35 0 -8 27 -35 35
-35 8 0 35 -27 35 -35 0 -4 16 -22 35 -41 19 -18 35 -40 35 -49 0 -8 5 -15 10
-15 12 0 60 -45 60 -55 0 -10 28 -35 39 -35 6 0 11 -9 11 -21 0 -11 16 -35 35
-53 19 -19 35 -38 35 -45 0 -6 13 -25 30 -42 16 -17 32 -40 35 -50 4 -11 11
-19 16 -19 5 0 9 -11 9 -25 0 -16 6 -25 15 -25 8 0 15 -7 15 -15 0 -8 5 -15
10 -15 6 0 10 -9 10 -20 0 -11 5 -20 10 -20 6 0 10 -9 10 -20 0 -11 5 -20 10
-20 6 0 18 -18 27 -40 10 -22 21 -40 25 -40 5 0 8 -9 8 -20 0 -11 4 -20 9 -20
5 0 12 -11 15 -25 4 -14 11 -25 16 -25 6 0 10 -11 10 -25 0 -14 5 -25 10 -25
6 0 10 -9 10 -19 0 -10 7 -21 15 -25 8 -3 15 -15 15 -26 0 -11 5 -20 10 -20 6
0 10 -7 10 -15 0 -8 5 -15 10 -15 6 0 10 -9 10 -20 0 -11 4 -20 9 -20 5 0 12
-11 15 -25 4 -14 11 -25 16 -25 6 0 10 -9 10 -20 0 -11 5 -20 10 -20 6 0 10
-11 10 -25 0 -14 4 -25 9 -25 11 0 41 -56 41 -77 0 -7 5 -13 10 -13 6 0 10 -7
10 -15 0 -8 3 -15 8 -15 10 0 42 -58 42 -76 0 -8 5 -14 10 -14 6 0 10 -9 10
-20 0 -19 6 -29 38 -65 6 -7 12 -23 12 -34 0 -12 5 -21 10 -21 6 0 10 -9 10
-19 0 -10 6 -21 14 -24 8 -3 20 -22 27 -41 7 -20 17 -36 21 -36 4 0 8 -9 8
-20 0 -11 4 -20 9 -20 5 0 12 -11 15 -25 4 -14 11 -25 16 -25 6 0 10 -11 10
-25 0 -14 5 -25 10 -25 6 0 10 -9 10 -20 0 -11 4 -20 9 -20 5 0 12 -11 15 -25
4 -14 11 -25 16 -25 6 0 10 -7 10 -15 0 -8 5 -15 10 -15 6 0 10 -9 10 -20 0
-11 5 -20 10 -20 6 0 10 -9 10 -20 0 -11 7 -23 15 -26 8 -4 15 -15 15 -25 0
-10 5 -19 10 -19 6 0 10 -11 10 -25 0 -14 5 -25 10 -25 6 0 10 -6 10 -14 0 -7
7 -19 15 -26 8 -7 15 -21 15 -31 0 -11 5 -19 10 -19 6 0 10 -7 10 -15 0 -8 5
-15 10 -15 6 0 10 -9 10 -19 0 -10 7 -21 15 -25 8 -3 15 -15 15 -26 0 -11 5
-20 10 -20 6 0 10 -11 10 -25 0 -14 5 -25 10 -25 6 0 10 -9 10 -20 0 -11 7
-20 15 -20 9 0 15 -9 15 -25 0 -14 5 -25 10 -25 6 0 10 -9 10 -20 0 -11 5 -20
10 -20 6 0 10 -7 10 -15 0 -8 4 -15 10 -15 5 0 12 -11 16 -25 3 -14 10 -25 15
-25 5 0 9 -9 9 -20 0 -11 5 -20 10 -20 6 0 10 -11 10 -25 0 -16 6 -25 15 -25
8 0 15 -9 15 -20 0 -11 5 -20 10 -20 6 0 10 -11 10 -25 0 -14 4 -25 9 -25 5 0
12 -11 15 -25 4 -14 11 -25 16 -25 6 0 10 -7 10 -15 0 -8 5 -15 10 -15 6 0 10
-9 10 -20 0 -11 5 -20 10 -20 6 0 10 -9 10 -20 0 -11 7 -23 15 -26 8 -4 15
-15 15 -25 0 -10 5 -19 10 -19 6 0 10 -11 10 -25 0 -14 5 -25 10 -25 6 0 10
-6 10 -14 0 -7 7 -19 15 -26 8 -7 15 -21 15 -31 0 -11 5 -19 10 -19 6 0 10 -7
10 -15 0 -8 4 -15 8 -15 5 0 14 -10 20 -22 6 -13 11 -17 11 -10 1 6 12 12 26
12 16 0 25 6 25 15 0 9 9 15 25 15 14 0 25 5 25 10 0 6 14 10 30 10 17 0 30 5
30 10 0 6 18 10 39 10 23 0 41 5 43 13 4 9 50 12 188 12 138 0 184 -3 187 -12
3 -8 22 -13 49 -13 24 0 44 -4 44 -10 0 -5 13 -10 29 -10 17 0 33 -4 36 -10 3
-5 15 -10 26 -10 16 0 19 7 19 55 0 30 4 55 9 55 5 0 11 17 14 38 8 60 25 116
36 120 6 2 11 15 11 28 0 13 5 24 10 24 6 0 10 11 10 25 0 14 5 25 10 25 6 0
10 9 10 20 0 11 7 23 15 26 8 4 15 15 15 25 0 10 5 19 10 19 6 0 10 9 10 20 0
19 6 29 38 65 6 7 12 18 12 24 0 6 5 11 10 11 6 0 10 7 10 15 0 9 20 36 45 62
25 25 45 49 45 54 0 12 148 159 160 159 5 0 27 18 49 40 22 22 47 40 55 40 9
0 16 5 16 10 0 6 7 10 15 10 8 0 15 -4 15 -10 0 -5 7 -10 15 -10 8 0 15 -8 15
-18 0 -10 9 -28 20 -40 11 -12 20 -26 20 -32 0 -6 11 -21 25 -34 14 -13 25
-31 25 -40 0 -9 5 -16 10 -16 6 0 10 -7 10 -15 0 -8 7 -15 15 -15 8 0 15 -8
15 -18 0 -10 9 -28 20 -40 11 -12 20 -24 20 -27 0 -10 -28 -35 -39 -35 -6 0
-11 -4 -11 -10 0 -5 -9 -10 -20 -10 -11 0 -20 -5 -20 -11 0 -11 -25 -39 -35
-39 -4 0 -13 -6 -21 -14 -8 -8 -14 -17 -14 -21 0 -4 -6 -13 -14 -21 -8 -8 -17
-14 -21 -14 -8 0 -35 -27 -35 -35 0 -6 -10 -19 -37 -50 -7 -7 -13 -17 -13 -22
0 -5 -9 -15 -20 -23 -11 -8 -20 -23 -20 -33 0 -9 -7 -20 -15 -23 -8 -4 -15
-15 -15 -25 0 -10 -4 -19 -10 -19 -5 0 -10 -11 -10 -25 0 -14 -4 -25 -10 -25
-5 0 -10 -9 -10 -21 0 -11 -7 -27 -15 -35 -8 -9 -15 -26 -15 -40 0 -13 -4 -24
-10 -24 -5 0 -10 -13 -10 -30 0 -23 4 -30 20 -30 11 0 20 5 20 10 0 6 20 10
44 10 27 0 46 5 49 13 3 9 49 12 187 12 138 0 184 -3 188 -12 2 -8 21 -13 48
-13 24 0 44 -4 44 -10 0 -5 8 -10 17 -10 25 0 103 -31 103 -41 0 -5 11 -9 25
-9 14 0 25 -4 25 -10 0 -5 9 -10 20 -10 11 0 20 -4 20 -10 0 -5 7 -10 15 -10
8 0 15 -7 15 -15 0 -8 9 -15 20 -15 11 0 20 -4 20 -10 0 -5 5 -10 11 -10 14 0
39 -25 39 -39 0 -6 5 -11 10 -11 14 0 60 -46 60 -60 0 -5 5 -10 10 -10 11 0
60 -45 60 -55 0 -6 11 -20 38 -50 6 -7 12 -18 12 -24 0 -6 5 -11 10 -11 6 0
10 -11 10 -25 0 -16 6 -25 15 -25 8 0 15 -9 15 -20 0 -11 5 -20 10 -20 6 0 10
-11 10 -25 0 -14 5 -25 10 -25 6 0 10 -14 10 -31 0 -17 7 -37 15 -45 8 -9 15
-31 15 -49 0 -19 5 -37 10 -40 6 -4 10 -90 10 -226 0 -139 -4 -219 -10 -219
-5 0 -10 -25 -10 -55 0 -40 -4 -57 -15 -61 -10 -4 -15 -20 -15 -50 0 -24 -4
-44 -10 -44 -5 0 -10 -20 -10 -45 l0 -45 200 0 c127 0 200 -4 200 -10 0 -5 16
-10 35 -10 19 0 35 -4 35 -10 0 -5 9 -10 20 -10 11 0 20 -7 20 -15 0 -9 9 -15
25 -15 14 0 25 -4 25 -9 0 -5 9 -12 19 -16 28 -8 141 -120 141 -138 0 -8 7
-17 15 -21 8 -3 15 -15 15 -26 0 -11 5 -20 10 -20 6 0 10 -11 10 -25 0 -14 5
-25 10 -25 6 0 10 -16 10 -35 0 -24 5 -35 15 -35 13 0 15 -43 15 -325 0 -280
-2 -326 -15 -331 -9 -4 -15 -19 -15 -40 0 -19 -4 -34 -10 -34 -5 0 -10 -9 -10
-20 0 -11 -4 -20 -10 -20 -5 0 -10 -11 -10 -25 0 -16 -6 -25 -15 -25 -8 0 -15
-9 -15 -20 0 -11 -4 -20 -10 -20 -5 0 -10 -5 -10 -11 0 -14 -25 -39 -39 -39
-6 0 -11 -5 -11 -11 0 -14 -25 -39 -39 -39 -6 0 -11 -4 -11 -10 0 -5 -9 -10
-19 -10 -10 0 -21 -7 -25 -15 -3 -8 -15 -15 -26 -15 -11 0 -20 -4 -20 -10 0
-5 -9 -10 -20 -10 -11 0 -20 -4 -20 -10 0 -5 -15 -10 -34 -10 -19 0 -36 -5
-38 -12 -3 -7 -32 -14 -70 -16 l-67 -4 -6 -39 c-4 -22 -11 -39 -16 -39 -5 0
-9 -68 -9 -155 0 -91 -4 -155 -9 -155 -6 0 -12 -63 -15 -142 -11 -322 -21
-451 -34 -456 -9 -3 -12 -44 -12 -158 0 -90 -4 -154 -9 -154 -6 0 -12 -63 -15
-143 -11 -321 -21 -450 -34 -455 -9 -3 -12 -44 -12 -158 0 -90 -4 -154 -9
-154 -6 0 -12 -63 -15 -142 -11 -322 -21 -451 -34 -456 -9 -3 -12 -44 -12
-158 0 -90 -4 -154 -9 -154 -6 0 -12 -63 -15 -143 -11 -321 -21 -450 -34 -455
-8 -2 -12 -30 -12 -88 0 -49 -4 -84 -10 -84 -5 0 -10 -20 -10 -45 0 -25 -4
-45 -10 -45 -5 0 -10 -16 -10 -35 0 -24 -5 -35 -15 -35 -10 0 -15 -11 -15 -35
0 -19 -4 -35 -10 -35 -5 0 -10 -11 -10 -25 0 -14 -4 -25 -10 -25 -5 0 -10 -9
-10 -20 0 -11 -7 -23 -15 -26 -8 -4 -15 -15 -15 -25 0 -10 -4 -19 -10 -19 -5
0 -10 -5 -10 -10 0 -10 -8 -22 -37 -55 -7 -7 -13 -16 -13 -20 0 -7 -14 -24
-47 -60 -13 -13 -23 -27 -23 -30 0 -13 -150 -155 -164 -155 -9 0 -16 -4 -16
-10 0 -5 -7 -10 -15 -10 -8 0 -15 -5 -15 -11 0 -16 -31 -38 -52 -39 -10 0 -18
-4 -18 -10 0 -5 -9 -10 -20 -10 -11 0 -20 -7 -20 -15 0 -8 -7 -15 -15 -15 -8
0 -15 -4 -15 -10 0 -5 -11 -10 -25 -10 -14 0 -25 -4 -25 -10 0 -5 -13 -10 -29
-10 -16 0 -31 -6 -35 -15 -3 -8 -16 -15 -30 -15 -14 0 -28 -5 -31 -10 -3 -6
-22 -10 -41 -10 -19 0 -34 -4 -34 -10 0 -5 -21 -10 -46 -10 -27 0 -51 -6 -60
-15 -14 -13 -413 -15 -3556 -13 -2822 2 -3542 6 -3546 16 -2 8 -24 12 -63 12
-33 0 -59 4 -59 10 0 6 -16 10 -35 10 -19 0 -35 4 -35 9 0 5 -16 12 -35 15
-19 4 -35 11 -35 16 0 6 -11 10 -25 10 -14 0 -25 5 -25 10 0 6 -9 10 -20 10
-11 0 -20 4 -20 9 0 5 -11 12 -25 15 -14 4 -25 11 -25 16 0 6 -9 10 -20 10
-11 0 -20 5 -20 10 0 6 -5 10 -10 10 -10 0 -22 8 -55 38 -7 6 -16 12 -20 12
-3 0 -17 10 -30 23 -36 33 -53 47 -60 47 -10 0 -115 113 -115 123 0 5 -16 24
-35 43 -19 18 -35 40 -35 49 0 8 -4 15 -10 15 -5 0 -10 7 -10 15 0 8 -4 15
-10 15 -5 0 -10 9 -10 20 0 11 -7 20 -15 20 -9 0 -15 9 -15 25 0 14 -4 25 -10
25 -5 0 -10 9 -10 20 0 11 -4 20 -10 20 -5 0 -10 11 -10 24 0 13 -7 26 -15 30
-9 3 -15 18 -15 36 0 16 -4 30 -10 30 -5 0 -10 16 -10 35 0 19 -4 35 -10 35
-5 0 -10 19 -10 43 0 24 -6 49 -12 55 -14 14 -26 145 -34 369 -3 80 -9 143
-15 143 -5 0 -9 57 -9 136 0 81 -4 144 -11 156 -12 22 -26 222 -35 475 -3 80
-9 143 -15 143 -5 0 -9 57 -9 136 0 81 -4 144 -11 156 -12 22 -26 222 -35 475
-3 80 -9 143 -15 143 -5 0 -9 57 -9 136 0 81 -4 144 -11 156 -12 22 -26 222
-35 476 -3 79 -9 142 -15 142 -5 0 -9 62 -9 149 0 103 -4 151 -11 153 -8 3
-13 54 -17 153 -2 83 -9 156 -14 163 -6 7 -34 12 -69 12 -33 0 -59 4 -59 10 0
6 -18 10 -40 10 -22 0 -40 5 -40 10 0 6 -11 10 -24 10 -13 0 -26 7 -30 15 -3
8 -15 15 -26 15 -11 0 -20 5 -20 10 0 6 -5 10 -10 10 -19 0 -130 108 -130 126
0 4 -11 17 -25 30 -14 13 -25 30 -25 39 0 8 -4 15 -10 15 -5 0 -10 11 -10 25
0 14 -4 25 -9 25 -4 0 -11 19 -14 42 -3 24 -11 44 -16 46 -14 5 -15 612 -2
612 6 0 13 20 17 45 3 25 10 45 15 45 5 0 9 11 9 25 0 14 5 25 10 25 6 0 10 7
10 15 0 9 16 31 35 49 19 19 35 38 35 43 1 14 37 53 50 53 6 0 26 16 44 35 19
19 43 35 55 35 11 0 21 5 21 10 0 6 7 10 16 10 8 0 22 7 30 15 9 8 31 15 50
15 19 0 34 5 34 10 0 6 58 10 155 10 l155 0 0 360 c0 233 4 360 10 360 6 0 10
23 10 50 0 28 5 50 10 50 6 0 10 14 10 30 0 18 6 33 15 36 9 4 15 19 15 35 0
16 4 29 8 29 4 0 14 16 21 36 7 19 19 38 27 41 8 3 14 14 14 24 0 10 5 19 10
19 6 0 10 5 10 10 0 10 8 22 38 55 6 7 12 16 12 19 0 10 120 126 130 126 6 0
10 5 10 11 0 14 30 38 48 39 16 0 42 24 42 39 0 6 7 11 15 11 8 0 15 5 15 10
0 6 7 10 16 10 8 0 30 16 48 35 19 19 39 35 45 35 7 0 28 16 48 35 20 19 42
35 50 35 17 0 43 24 43 39 0 6 5 11 10 11 11 0 14 277 4 304 -3 9 -17 16 -30
16 -13 0 -24 4 -24 9 0 5 -11 12 -25 15 -14 4 -25 11 -25 16 0 6 -5 10 -10 10
-22 0 -130 108 -130 130 0 5 -5 10 -11 10 -17 0 -39 27 -39 49 0 12 -4 21 -10
21 -5 0 -10 9 -10 21 0 11 -7 27 -15 35 -8 9 -15 29 -15 45 0 16 -4 29 -10 29
-13 0 -13 247 0 255 6 3 10 16 10 29 0 12 7 31 15 42 8 10 15 27 15 37 0 9 5
17 10 17 6 0 10 9 10 21 0 22 22 49 39 49 6 0 11 9 11 20 0 11 5 20 10 20 6 0
10 7 10 15 0 8 5 15 10 15 6 0 22 10 35 23 36 33 53 47 60 47 6 0 20 11 50 38
7 6 23 12 34 12 12 0 21 5 21 10 0 6 15 10 34 10 19 0 36 6 38 13 4 9 153 13
690 15 603 2 688 1 701 -13 9 -8 29 -15 46 -15 17 0 31 -4 31 -10 0 -5 11 -10
25 -10 14 0 25 -4 25 -10 0 -5 7 -10 15 -10 9 0 26 -11 39 -25 13 -14 29 -25
35 -25 16 0 82 -67 106 -108 11 -17 23 -32 27 -32 4 0 8 -11 8 -25 0 -16 6
-25 15 -25 8 0 15 -9 15 -19 0 -11 5 -23 10 -26 6 -3 10 -19 10 -36 0 -16 5
-29 10 -29 6 0 10 -53 10 -140 0 -87 -4 -140 -10 -140 -5 0 -10 -15 -10 -34 0
-19 -4 -38 -10 -41 -5 -3 -10 -15 -10 -26 0 -10 -7 -19 -15 -19 -9 0 -15 -9
-15 -23 0 -12 -9 -29 -20 -37 -11 -8 -20 -20 -20 -27 0 -14 -88 -103 -102
-103 -5 0 -21 -11 -36 -25 -15 -14 -32 -25 -39 -25 -7 0 -13 -4 -13 -10 0 -5
-9 -10 -21 -10 -43 0 -49 -20 -49 -170 l0 -142 29 -29 c16 -16 35 -29 42 -29
6 0 27 -16 46 -35 19 -19 43 -35 53 -35 11 0 20 -6 21 -12 0 -10 2 -10 6 0 2
6 11 12 19 12 8 0 14 10 14 25 0 14 5 25 10 25 6 0 10 13 10 29 0 17 5 33 10
36 6 3 10 15 10 25 0 10 7 25 15 34 8 8 15 24 15 35 0 12 3 21 8 21 4 0 15 18
25 40 9 22 21 40 27 40 5 0 10 9 10 20 0 11 4 20 8 20 5 0 17 16 28 35 10 19
22 35 26 35 5 0 8 5 8 10 0 6 10 22 23 35 33 36 47 53 47 60 0 8 27 35 35 35
8 0 35 27 35 35 0 8 27 35 35 35 7 0 24 14 60 48 13 12 29 22 35 22 5 0 10 5
10 10 0 6 6 10 13 10 7 0 24 11 39 25 15 14 34 25 43 25 8 0 15 4 15 9 0 5 11
12 25 15 14 4 25 11 25 16 0 6 11 10 25 10 14 0 25 5 25 10 0 6 9 10 20 10 11
0 20 5 20 10 0 6 9 10 21 10 11 0 27 7 35 15 9 8 26 15 40 15 20 0 24 5 24 30
0 17 -4 30 -10 30 -5 0 -10 11 -10 25 0 14 -6 25 -13 25 -7 0 -19 16 -26 35
-7 19 -17 35 -22 35 -5 0 -9 11 -9 25 0 16 -6 25 -15 25 -8 0 -15 9 -15 20 0
11 -4 20 -10 20 -5 0 -10 7 -10 15 0 8 -4 15 -10 15 -5 0 -10 9 -10 20 0 19
-6 29 -37 65 -7 7 -13 21 -13 29 0 9 -4 16 -10 16 -5 0 -10 7 -10 16 0 8 -6
22 -12 29 -32 35 -38 45 -38 60 0 8 -4 15 -10 15 -5 0 -10 11 -10 24 0 13 -7
26 -15 30 -8 3 -15 12 -15 21 0 8 -4 15 -10 15 -5 0 -10 7 -10 15 0 8 -4 15
-10 15 -5 0 -10 9 -10 20 0 19 -6 29 -37 65 -7 7 -13 23 -13 34 0 12 -4 21
-10 21 -5 0 -10 5 -10 10 0 10 -8 22 -37 55 -7 7 -13 23 -13 34 0 12 -4 21
-10 21 -5 0 -10 9 -10 19 0 11 -3 21 -7 23 -11 4 -43 67 -43 84 0 8 -4 14 -10
14 -5 0 -10 16 -10 35 0 19 -4 35 -10 35 -5 0 -12 16 -16 35 -3 19 -10 35 -15
35 -5 0 -9 16 -9 35 0 19 -4 35 -10 35 -5 0 -10 20 -10 45 0 25 -4 45 -10 45
-5 0 -12 17 -15 38 -3 20 -10 45 -16 54 -5 10 -9 45 -9 78 0 33 -4 60 -10 60
-6 0 -10 85 -10 235 0 150 4 235 10 235 6 0 10 12 10 26 0 30 31 127 43 132 4
2 7 15 7 28 0 13 5 24 10 24 6 0 10 9 10 21 0 11 6 27 13 34 31 36 37 46 37
65 0 11 5 20 10 20 6 0 10 6 10 13 0 8 11 20 25 27 14 7 25 22 25 32 0 10 5
18 10 18 6 0 10 7 10 15 0 8 5 15 11 15 11 0 39 25 39 35 0 8 27 35 35 35 3 0
17 10 30 23 40 37 54 47 65 47 5 0 10 5 10 10 0 6 5 10 10 10 10 0 22 8 55 38
7 6 23 12 34 12 12 0 21 5 21 10 0 6 9 10 19 10 11 0 21 5 23 11 4 12 73 39
101 39 9 0 17 5 17 10 0 6 21 10 46 10 28 0 51 6 61 16 14 13 42 15 196 12
133 -2 181 -6 185 -15z"/>
<path d="M6040 12601 c0 -5 -22 -12 -50 -16 -27 -4 -52 -11 -56 -16 -3 -5 -16
-9 -30 -9 -13 0 -24 -4 -24 -10 0 -5 -11 -10 -25 -10 -14 0 -25 -4 -25 -10 0
-5 -7 -10 -15 -10 -9 0 -18 -7 -21 -15 -4 -8 -12 -15 -20 -15 -8 0 -14 -4 -14
-10 0 -5 -7 -10 -15 -10 -16 0 -95 -74 -95 -89 0 -6 -11 -21 -25 -35 -14 -14
-25 -32 -25 -41 0 -15 -6 -25 -37 -60 -7 -7 -13 -27 -13 -44 0 -17 -4 -31 -10
-31 -5 0 -10 -22 -10 -50 0 -27 -4 -50 -10 -50 -6 0 -10 -40 -10 -99 0 -56 4
-103 10 -106 6 -3 10 -46 10 -96 0 -53 4 -89 10 -89 6 0 10 -21 10 -46 0 -27
6 -51 15 -60 8 -9 15 -31 15 -50 0 -19 5 -34 10 -34 6 0 10 -16 10 -35 0 -19
5 -35 10 -35 6 0 10 -13 10 -29 0 -16 6 -31 15 -35 8 -3 15 -14 15 -25 0 -11
5 -23 10 -26 6 -3 10 -15 10 -26 0 -10 5 -19 10 -19 6 0 10 -11 10 -25 0 -16
6 -25 15 -25 8 0 15 -9 15 -19 0 -11 5 -23 10 -26 6 -3 10 -15 10 -26 0 -10 5
-19 10 -19 6 0 10 -7 10 -14 0 -8 11 -27 25 -42 14 -15 25 -35 25 -45 0 -11 5
-19 10 -19 6 0 10 -9 10 -19 0 -10 6 -21 14 -24 8 -3 20 -22 27 -41 7 -20 17
-36 21 -36 4 0 8 -9 8 -19 0 -10 7 -21 15 -25 8 -3 15 -15 15 -26 0 -11 5 -20
10 -20 6 0 10 -7 10 -15 0 -8 5 -15 10 -15 6 0 10 -9 10 -20 0 -11 3 -20 8
-20 10 0 42 -58 42 -76 0 -8 5 -14 10 -14 6 0 10 -7 10 -15 0 -8 3 -15 8 -15
10 0 42 -58 42 -76 0 -8 5 -14 10 -14 6 0 10 -9 10 -20 0 -11 5 -20 10 -20 6
0 18 -16 27 -35 9 -19 20 -35 25 -35 4 0 8 -11 8 -25 0 -16 6 -25 15 -25 9 0
15 -9 15 -25 0 -14 5 -25 10 -25 6 0 10 -7 10 -15 0 -8 5 -15 10 -15 6 0 10
-9 10 -20 0 -11 4 -20 9 -20 5 0 13 -9 16 -20 6 -18 15 -20 83 -20 48 -1 86
-6 102 -15 14 -8 46 -14 73 -15 26 0 47 -4 47 -10 0 -5 16 -10 35 -10 19 0 35
-4 35 -10 0 -5 14 -10 30 -10 18 0 33 -6 36 -15 4 -9 19 -15 35 -15 16 0 29
-4 29 -10 0 -5 11 -10 25 -10 14 0 25 -4 25 -9 0 -5 11 -12 25 -15 14 -4 25
-11 25 -16 0 -6 7 -10 15 -10 8 0 15 -4 15 -10 0 -5 9 -10 20 -10 11 0 20 -4
20 -10 0 -5 6 -10 13 -10 7 0 24 -11 39 -25 15 -14 30 -25 33 -25 7 0 24 -14
60 -47 13 -13 27 -23 30 -23 10 0 35 -28 35 -39 0 -6 5 -11 10 -11 12 0 60
-45 60 -55 0 -10 28 -35 39 -35 6 0 11 -9 11 -20 0 -11 5 -20 10 -20 6 0 10
-5 10 -10 0 -6 11 -21 25 -34 14 -13 25 -31 25 -40 0 -10 9 -16 25 -16 14 0
25 -4 25 -10 0 -5 13 -10 29 -10 17 0 33 -4 36 -10 3 -5 15 -10 25 -10 10 0
25 -7 34 -15 8 -8 24 -15 35 -15 12 0 21 -4 21 -10 0 -5 6 -10 14 -10 18 0 76
-32 76 -42 0 -5 7 -8 15 -8 8 0 15 -4 15 -10 0 -5 7 -10 16 -10 9 0 31 -16 50
-35 18 -19 38 -35 45 -35 6 0 24 -12 38 -27 15 -16 39 -37 54 -48 15 -11 27
-25 27 -32 0 -7 5 -13 11 -13 11 0 39 -25 39 -35 0 -3 10 -17 23 -30 34 -37
47 -54 47 -61 0 -4 8 -14 19 -23 10 -9 21 -26 25 -38 4 -13 12 -23 17 -23 5 0
9 -7 9 -15 0 -8 5 -15 10 -15 6 0 10 -9 10 -20 0 -11 4 -20 9 -20 5 0 12 -11
15 -25 4 -14 11 -25 16 -25 6 0 10 -9 10 -20 0 -11 5 -20 10 -20 6 0 10 -16
10 -35 0 -19 4 -35 9 -35 12 0 41 -80 41 -113 0 -15 5 -27 10 -27 6 0 10 -22
10 -49 0 -31 5 -51 13 -53 9 -4 12 -58 12 -228 0 -170 -3 -224 -12 -227 -8 -3
-13 -23 -13 -54 0 -27 -4 -49 -10 -49 -5 0 -10 -16 -10 -35 0 -19 -4 -35 -10
-35 -5 0 -10 -11 -10 -24 0 -14 -7 -31 -15 -40 -8 -8 -15 -28 -15 -45 0 -17
-4 -31 -10 -31 -5 0 -10 -4 -10 -10 0 -6 133 -10 380 -10 247 0 380 4 380 10
0 6 -4 10 -10 10 -5 0 -10 16 -10 35 0 19 -4 35 -10 35 -5 0 -10 17 -10 39 0
22 -6 44 -15 51 -10 8 -15 31 -15 66 0 29 -4 56 -10 59 -6 4 -10 87 -10 215 0
128 4 211 10 215 6 3 10 22 10 41 0 20 7 42 15 50 8 9 15 26 15 40 0 13 5 24
10 24 6 0 10 14 10 30 0 17 4 30 9 30 5 0 12 11 15 25 4 14 11 25 16 25 6 0
10 7 10 15 0 8 5 15 10 15 6 0 10 9 10 20 0 11 5 20 10 20 6 0 10 7 10 15 0 8
7 15 15 15 8 0 15 9 15 19 0 11 -7 26 -15 35 -8 8 -15 24 -15 35 0 12 -4 21
-10 21 -5 0 -10 7 -10 15 0 8 -4 15 -10 15 -5 0 -10 9 -10 19 0 10 -7 21 -15
25 -8 3 -15 15 -15 26 0 11 -4 20 -10 20 -5 0 -10 9 -10 20 0 11 -4 20 -10 20
-5 0 -10 11 -10 25 0 16 -6 25 -15 25 -8 0 -15 9 -15 19 0 11 -4 23 -10 26 -5
3 -10 15 -10 26 0 10 -4 19 -10 19 -5 0 -10 7 -10 15 0 8 -3 15 -7 15 -11 0
-43 58 -43 76 0 8 -4 14 -10 14 -5 0 -10 9 -10 20 0 11 -7 23 -15 26 -8 4 -15
15 -15 25 0 10 -4 19 -10 19 -5 0 -10 11 -10 24 0 13 -3 26 -7 28 -14 6 -63
87 -63 103 0 8 -4 15 -10 15 -5 0 -10 9 -10 19 0 10 -7 21 -15 25 -8 3 -15 15
-15 26 0 11 -4 20 -10 20 -5 0 -10 9 -10 21 0 11 -6 27 -12 34 -32 35 -38 45
-38 60 0 9 -6 23 -14 31 -17 16 -46 19 -46 4 0 -5 -11 -10 -25 -10 -14 0 -25
-4 -25 -10 0 -5 -6 -10 -13 -10 -7 0 -24 -11 -39 -25 -15 -14 -36 -25 -48 -25
-11 0 -20 -4 -20 -10 0 -5 -9 -10 -20 -10 -11 0 -20 -7 -20 -15 0 -9 -9 -15
-25 -15 -14 0 -25 -4 -25 -10 0 -5 -9 -10 -20 -10 -11 0 -20 -4 -20 -9 0 -5
-11 -12 -25 -15 -14 -4 -25 -11 -25 -16 0 -6 -11 -10 -25 -10 -14 0 -25 -4
-25 -10 0 -5 -16 -10 -35 -10 -19 0 -35 -4 -35 -10 0 -5 -15 -10 -32 -10 -18
-1 -44 -7 -58 -15 -37 -21 -315 -21 -336 0 -9 8 -26 15 -40 15 -13 0 -24 5
-24 10 0 6 -11 10 -25 10 -14 0 -25 5 -25 10 0 6 -8 10 -19 10 -10 0 -27 11
-37 25 -10 14 -22 25 -26 25 -12 0 -58 42 -58 53 0 12 -26 37 -39 37 -6 0 -11
7 -11 15 0 8 -4 15 -10 15 -5 0 -10 9 -10 20 0 11 -4 20 -10 20 -5 0 -10 11
-10 24 0 13 -7 26 -15 30 -9 3 -15 18 -15 36 0 16 -4 30 -10 30 -6 0 -10 53
-10 140 0 87 4 140 10 140 6 0 10 11 10 24 0 14 7 31 15 40 8 8 15 24 15 35 0
12 5 21 10 21 6 0 10 6 10 14 0 8 16 31 35 50 19 20 35 39 35 42 0 8 27 34 35
34 10 0 35 28 35 39 0 6 6 11 13 11 18 0 67 24 67 33 0 4 9 7 20 7 11 0 20 4
20 8 0 9 70 42 88 42 7 0 12 5 12 10 0 6 9 10 20 10 11 0 20 4 20 8 0 9 70 42
88 42 7 0 12 5 12 10 0 6 9 10 20 10 11 0 20 4 20 8 0 9 70 42 88 42 7 0 12 5
12 10 0 6 7 10 16 10 8 0 22 6 30 14 7 8 19 17 26 20 10 5 10 7 1 12 -7 3 -13
14 -13 25 0 10 -4 19 -10 19 -5 0 -10 11 -10 25 0 16 -6 25 -15 25 -8 0 -15 9
-15 20 0 11 -4 20 -10 20 -5 0 -10 11 -10 25 0 14 -4 25 -10 25 -5 0 -10 7
-10 15 0 8 -4 15 -10 15 -5 0 -12 11 -16 25 -3 14 -10 25 -15 25 -5 0 -9 7 -9
16 0 18 -23 44 -39 44 -6 0 -11 -4 -11 -10 0 -5 -9 -10 -20 -10 -11 0 -20 -3
-20 -7 0 -11 -58 -43 -76 -43 -8 0 -14 -4 -14 -10 0 -5 -7 -10 -15 -10 -8 0
-15 -3 -15 -7 0 -11 -58 -43 -76 -43 -8 0 -14 -4 -14 -10 0 -5 -9 -10 -19 -10
-10 0 -21 -7 -25 -15 -3 -8 -15 -15 -26 -15 -11 0 -20 -4 -20 -10 0 -5 -11
-10 -25 -10 -14 0 -25 -4 -25 -10 0 -5 -9 -10 -21 -10 -11 0 -27 -7 -35 -15
-9 -8 -26 -15 -40 -15 -13 0 -24 -4 -24 -10 0 -5 -20 -10 -45 -10 -25 0 -45
-4 -45 -10 0 -6 -62 -10 -165 -10 -103 0 -165 4 -165 10 0 6 -16 10 -35 10
-19 0 -35 4 -35 10 0 5 -11 12 -25 16 -14 3 -25 10 -25 15 0 5 -9 9 -20 9 -11
0 -20 5 -20 10 0 6 -5 10 -11 10 -14 0 -39 25 -39 39 0 6 -9 11 -19 11 -11 0
-23 9 -26 20 -3 11 -11 20 -16 20 -5 0 -9 6 -9 13 0 7 -11 21 -25 31 -14 10
-25 27 -25 37 0 11 -4 19 -10 19 -5 0 -10 9 -10 20 0 11 -4 20 -10 20 -5 0
-10 15 -10 34 0 21 -6 36 -15 40 -12 4 -15 29 -15 135 0 102 3 133 15 145 8 8
15 28 15 45 0 17 5 31 10 31 6 0 10 9 10 20 0 11 4 20 9 20 5 0 12 11 15 25 4
14 11 25 16 25 6 0 10 5 10 10 0 14 46 60 60 60 5 0 10 5 10 10 0 16 43 57 68
64 12 4 22 11 22 15 0 4 18 14 40 21 22 7 40 17 40 22 0 4 9 8 20 8 11 0 20 4
20 9 0 5 23 17 50 27 28 10 50 22 50 26 0 4 9 8 20 8 11 0 20 4 20 9 0 5 23
17 50 27 28 10 50 22 50 26 0 4 9 8 20 8 11 0 20 7 20 15 0 8 -4 15 -9 15 -4
0 -22 14 -39 30 -18 17 -35 30 -40 30 -4 0 -19 11 -34 25 -15 14 -32 25 -38
25 -5 0 -10 5 -10 10 0 6 -7 10 -16 10 -9 0 -27 11 -40 25 -13 14 -30 25 -39
25 -8 0 -15 5 -15 10 0 6 -8 10 -17 10 -22 1 -53 23 -53 39 0 6 -11 11 -25 11
-14 0 -25 5 -25 10 0 6 -11 10 -25 10 -14 0 -25 5 -25 10 0 6 -9 10 -20 10
-11 0 -20 7 -20 15 0 9 -9 15 -25 15 -14 0 -25 5 -25 10 0 6 -11 10 -24 10
-25 0 -88 29 -94 43 -2 4 -17 7 -33 7 -16 0 -29 4 -29 9 0 9 -17 14 -122 33
-38 7 -68 16 -68 20 0 4 -31 8 -70 8 -38 0 -70 -4 -70 -9z"/>
<path d="M7370 11832 c0 -4 -22 -16 -50 -27 -27 -11 -50 -23 -50 -27 0 -4 -9
-8 -20 -8 -11 0 -20 -4 -20 -8 0 -4 -22 -16 -50 -27 -27 -11 -50 -23 -50 -27
0 -4 -9 -8 -20 -8 -11 0 -20 -4 -20 -8 0 -4 -22 -16 -50 -27 -27 -11 -50 -23
-50 -27 0 -4 -9 -8 -20 -8 -11 0 -20 -4 -20 -8 0 -4 -15 -13 -34 -20 -47 -17
-72 -42 -80 -80 -4 -17 -12 -32 -17 -32 -5 0 -9 -13 -9 -30 0 -16 4 -30 9 -30
5 0 12 -11 15 -25 4 -14 11 -25 16 -25 6 0 10 -5 10 -11 0 -17 27 -39 49 -39
12 0 21 -5 21 -11 0 -7 17 -9 53 -5 28 4 76 9 105 12 28 3 52 10 52 15 0 5 11
9 25 9 14 0 43 11 65 25 22 14 46 25 55 25 8 0 15 5 15 10 0 6 9 10 19 10 10
0 21 7 25 15 3 8 15 15 26 15 11 0 20 5 20 10 0 6 7 10 15 10 8 0 15 5 15 10
0 6 9 10 20 10 11 0 20 4 20 10 0 5 11 12 25 16 14 3 25 10 25 15 0 5 9 9 20
9 11 0 20 5 20 10 0 6 7 10 15 10 18 0 20 36 3 55 -28 31 -38 44 -38 50 0 4
-6 12 -12 20 -7 7 -22 25 -33 40 -11 16 -32 41 -47 58 -16 16 -28 35 -28 43 0
8 -9 14 -20 14 -11 0 -20 -4 -20 -8z"/>
<path d="M8128 10533 c-10 -2 -18 -9 -18 -14 0 -5 -9 -9 -20 -9 -11 0 -20 -4
-20 -8 0 -4 -22 -16 -50 -27 -27 -11 -50 -23 -50 -27 0 -4 -9 -8 -20 -8 -11 0
-20 -4 -20 -10 0 -5 -11 -10 -25 -10 -14 0 -25 -4 -25 -10 0 -5 -11 -12 -25
-16 -14 -3 -25 -10 -25 -15 0 -5 -9 -9 -20 -9 -11 0 -20 -4 -20 -10 0 -5 -11
-10 -25 -10 -14 0 -25 -4 -25 -10 0 -5 -11 -12 -25 -16 -14 -3 -25 -10 -25
-15 0 -5 -9 -9 -20 -9 -11 0 -20 -4 -20 -10 0 -5 -7 -10 -15 -10 -23 0 -55
-37 -55 -65 0 -14 -4 -25 -10 -25 -5 0 -10 -16 -10 -35 0 -19 5 -35 10 -35 6
0 10 -10 10 -23 0 -15 9 -29 25 -37 14 -7 25 -19 25 -27 0 -7 11 -13 25 -13
14 0 25 -4 25 -10 0 -5 20 -10 45 -10 25 0 45 5 45 10 0 6 24 10 54 10 35 0
58 5 66 15 7 8 23 15 36 15 13 0 24 5 24 10 0 6 11 10 25 10 14 0 25 5 25 10
0 6 9 10 19 10 10 0 21 7 25 15 3 8 15 15 26 15 11 0 20 5 20 10 0 6 9 10 20
10 11 0 20 5 20 10 0 6 7 10 15 10 8 0 15 4 15 10 0 5 11 12 25 16 14 3 25 10
25 15 0 5 9 9 20 9 11 0 20 4 20 9 0 5 11 12 25 15 20 5 25 13 25 36 0 17 -4
30 -10 30 -5 0 -10 9 -10 20 0 11 -7 23 -15 26 -8 4 -15 15 -15 25 0 10 -4 19
-10 19 -5 0 -10 9 -10 20 0 12 -6 28 -12 36 -7 8 -17 20 -23 27 -5 7 -16 24
-24 40 -8 15 -17 26 -20 26 -3 -1 -14 -3 -23 -6z"/>
<path d="M3410 10360 c0 -5 -11 -10 -25 -10 -14 0 -25 -4 -25 -8 0 -5 -11 -14
-25 -20 -14 -6 -25 -18 -25 -27 0 -8 -4 -15 -10 -15 -5 0 -10 -11 -10 -25 0
-14 -4 -25 -10 -25 -5 0 -10 -20 -10 -45 0 -25 5 -45 10 -45 6 0 10 -9 10 -21
0 -19 4 -26 37 -61 26 -28 43 -38 63 -38 11 0 20 -4 20 -10 0 -7 207 -10 600
-10 393 0 600 3 600 10 0 6 9 10 20 10 26 0 100 74 100 100 0 11 5 20 10 20 6
0 10 20 10 45 0 25 -4 45 -10 45 -5 0 -10 9 -10 20 0 26 -74 100 -100 100 -11
0 -20 5 -20 10 0 7 -207 10 -600 10 -393 0 -600 -3 -600 -10z"/>
<path d="M6160 9800 c0 -6 -26 -10 -58 -10 -36 0 -66 -6 -78 -15 -10 -8 -31
-15 -46 -15 -16 0 -28 -4 -28 -10 0 -5 -16 -10 -35 -10 -19 0 -35 -4 -35 -10
0 -5 -11 -10 -25 -10 -16 0 -25 -6 -25 -15 0 -8 -9 -15 -20 -15 -11 0 -20 -4
-20 -10 0 -5 -7 -10 -15 -10 -8 0 -15 -4 -15 -10 0 -5 -7 -10 -15 -10 -9 0
-26 -11 -39 -25 -13 -14 -26 -25 -30 -25 -15 0 -126 -106 -126 -120 0 -5 -4
-10 -10 -10 -5 0 -10 -5 -10 -11 0 -7 -11 -22 -25 -35 -14 -13 -25 -30 -25
-39 0 -8 -4 -15 -10 -15 -5 0 -10 -7 -10 -15 0 -8 -4 -15 -10 -15 -5 0 -10 -9
-10 -20 0 -11 -7 -20 -15 -20 -9 0 -15 -9 -15 -25 0 -14 -4 -25 -10 -25 -5 0
-10 -16 -10 -35 0 -19 -4 -35 -10 -35 -5 0 -10 -11 -10 -24 0 -14 -7 -31 -15
-40 -8 -8 -15 -28 -15 -45 0 -17 -4 -31 -10 -31 -5 0 -10 -8 -10 -17 -1 -22
-23 -53 -39 -53 -6 0 -11 -4 -11 -10 0 -5 -9 -10 -20 -10 -11 0 -20 -5 -20
-10 0 -6 -16 -18 -35 -27 -19 -9 -35 -20 -35 -25 0 -4 -5 -8 -11 -8 -6 0 -17
-6 -24 -12 -31 -28 -44 -38 -50 -38 -8 0 -35 -27 -35 -35 0 -10 -28 -35 -39
-35 -6 0 -11 -7 -11 -15 0 -8 -3 -15 -8 -15 -4 0 -13 -13 -20 -30 -8 -16 -20
-30 -28 -30 -8 0 -14 -9 -14 -20 0 -11 -4 -20 -10 -20 -5 0 -10 -7 -10 -15 0
-8 -4 -15 -10 -15 -5 0 -10 -9 -10 -20 0 -11 -7 -23 -15 -26 -8 -4 -15 -17
-15 -30 0 -13 -4 -24 -10 -24 -5 0 -10 -13 -10 -30 0 -16 -4 -30 -10 -30 -5 0
-10 -10 -10 -23 0 -13 -7 -32 -15 -43 -9 -12 -14 -42 -15 -81 0 -35 -4 -63
-10 -63 -6 0 -10 -38 -10 -95 0 -57 4 -95 10 -95 6 0 10 -26 10 -57 1 -32 7
-69 15 -83 8 -14 14 -35 15 -47 0 -13 5 -23 10 -23 6 0 10 -16 10 -35 l0 -35
590 0 c325 0 590 4 590 8 0 4 -9 14 -20 22 -11 8 -20 20 -20 27 0 7 -7 13 -15
13 -8 0 -15 5 -15 10 0 6 -7 10 -16 10 -9 0 -31 16 -50 35 -18 19 -40 35 -49
35 -9 0 -23 6 -30 13 -35 31 -45 37 -60 37 -8 0 -15 5 -15 10 0 6 -11 10 -25
10 -14 0 -25 4 -25 9 0 5 -11 12 -25 15 -14 4 -25 11 -25 16 0 6 -16 10 -35
10 -19 0 -35 5 -35 10 0 6 -16 10 -35 10 -19 0 -35 5 -35 10 0 6 -15 10 -34
10 -19 0 -41 7 -50 15 -10 11 -36 15 -90 15 -44 0 -76 4 -76 10 0 6 -22 10
-50 10 l-50 0 0 191 0 190 108 -4 c130 -6 235 -22 240 -36 2 -6 26 -11 53 -11
27 0 49 -4 49 -10 0 -5 12 -10 28 -10 35 0 105 -25 110 -39 2 -6 17 -11 33
-11 16 0 29 -4 29 -10 0 -5 11 -10 25 -10 14 0 25 -4 25 -9 0 -5 11 -12 25
-15 14 -4 25 -11 25 -16 0 -6 11 -10 25 -10 14 0 25 -4 25 -10 0 -5 7 -10 16
-10 8 0 22 -6 29 -12 33 -30 45 -38 55 -38 5 0 10 -4 10 -10 0 -5 8 -10 18
-10 21 -1 52 -23 52 -39 0 -6 9 -11 20 -11 18 0 20 7 20 79 0 44 -4 83 -10 86
-5 3 -10 46 -10 96 0 53 -4 89 -10 89 -6 0 -10 36 -10 89 0 57 -4 91 -11 93
-7 2 -13 42 -17 96 -2 51 -9 95 -13 98 -5 3 -9 34 -9 69 0 80 10 87 130 93 47
2 89 8 95 13 5 5 42 9 82 9 71 0 73 -1 73 -25 0 -14 5 -25 10 -25 6 0 10 -38
10 -94 0 -52 4 -96 9 -98 11 -3 30 -150 38 -280 2 -49 9 -88 14 -88 5 0 9 -25
9 -55 0 -30 3 -55 8 -54 4 0 25 21 47 45 22 25 50 57 63 70 12 14 22 27 22 30
0 10 28 34 39 34 6 0 33 23 60 50 27 28 57 50 65 50 9 0 16 5 16 10 0 6 7 10
15 10 8 0 15 6 15 13 0 7 16 19 35 27 19 8 35 17 35 22 0 4 9 8 20 8 11 0 20
4 20 9 0 5 11 12 25 15 14 4 25 11 25 16 0 6 11 10 25 10 14 0 25 5 25 10 0 6
9 10 21 10 11 0 27 7 35 15 9 8 24 15 34 15 10 0 22 5 25 10 3 6 22 10 41 10
19 0 34 5 34 10 0 15 39 12 56 -4 8 -8 14 -34 14 -60 0 -25 5 -46 10 -46 6 0
10 -20 10 -44 0 -24 5 -46 11 -48 5 -2 13 -22 16 -46 3 -23 10 -42 14 -42 5 0
9 -17 9 -38 0 -34 -4 -39 -33 -50 -18 -7 -45 -12 -60 -12 -15 0 -27 -4 -27
-10 0 -5 -9 -10 -20 -10 -11 0 -23 -7 -26 -15 -4 -8 -15 -15 -25 -15 -10 0
-19 -4 -19 -10 0 -5 -11 -10 -25 -10 -14 0 -25 -4 -25 -10 0 -5 -6 -10 -13
-10 -7 0 -24 -11 -39 -25 -15 -14 -34 -25 -43 -25 -8 0 -15 -4 -15 -10 0 -5
-7 -10 -15 -10 -8 0 -15 -5 -15 -11 0 -11 -25 -39 -35 -39 -8 0 -35 -27 -35
-35 0 -10 -48 -55 -60 -55 -5 0 -10 -5 -10 -11 0 -6 -6 -17 -12 -24 -30 -33
-38 -45 -38 -55 0 -5 -4 -10 -10 -10 -5 0 -10 -9 -10 -20 0 -11 -4 -20 -10
-20 -5 0 -10 -5 -10 -11 0 -6 -6 -17 -12 -24 -32 -36 -38 -46 -38 -65 0 -11
-4 -20 -10 -20 -5 0 -10 -13 -10 -29 0 -17 -4 -32 -9 -35 -5 -3 -12 -22 -15
-41 -4 -19 -11 -35 -16 -35 -6 0 -10 -4 -10 -10 0 -7 184 -10 533 -10 l533 0
14 35 c8 19 20 35 27 35 7 0 13 9 13 20 0 11 4 20 8 20 4 0 16 23 26 50 10 28
22 50 27 50 5 0 9 11 9 25 0 14 5 25 10 25 6 0 10 20 10 45 0 25 4 45 9 45 4
0 11 29 14 65 4 36 11 74 17 84 14 28 12 90 -5 147 -8 27 -15 70 -15 97 0 26
-4 47 -10 47 -5 0 -10 16 -10 35 0 19 -4 35 -10 35 -5 0 -10 11 -10 24 0 14
-7 31 -15 40 -8 8 -15 24 -15 35 0 12 -4 21 -10 21 -5 0 -10 9 -10 20 0 11 -4
20 -10 20 -5 0 -10 5 -10 11 0 6 -6 17 -12 24 -28 31 -38 44 -38 50 0 4 -6 12
-12 20 -7 7 -22 25 -33 41 -27 38 -87 94 -100 94 -6 0 -17 9 -25 20 -8 11 -20
20 -27 20 -7 0 -13 7 -13 15 0 8 -9 15 -20 15 -11 0 -20 5 -20 10 0 6 -7 10
-15 10 -8 0 -15 5 -15 10 0 6 -9 10 -20 10 -11 0 -23 7 -26 15 -4 8 -17 15
-30 15 -13 0 -24 5 -24 10 0 6 -13 10 -30 10 -16 0 -30 5 -30 10 0 6 -15 10
-34 10 -18 0 -39 7 -46 15 -7 8 -23 15 -36 15 -13 0 -24 5 -24 10 0 6 -9 10
-21 10 -22 0 -49 22 -49 39 0 6 -7 11 -15 11 -8 0 -15 9 -15 20 0 11 -4 20
-10 20 -5 0 -10 7 -10 15 0 8 -4 15 -10 15 -5 0 -10 9 -10 20 0 11 -7 20 -15
20 -8 0 -15 6 -15 13 0 7 -9 19 -20 27 -11 8 -20 20 -20 27 0 16 -109 123
-126 123 -4 0 -17 11 -30 25 -13 14 -30 25 -39 25 -8 0 -15 5 -15 10 0 6 -7
10 -15 10 -8 0 -15 5 -15 10 0 6 -9 10 -20 10 -11 0 -20 7 -20 15 0 9 -9 15
-25 15 -14 0 -25 5 -25 10 0 6 -16 10 -35 10 -19 0 -35 5 -35 10 0 6 -14 10
-31 10 -17 0 -37 7 -45 15 -10 10 -35 15 -75 15 -33 0 -59 4 -59 10 0 6 -37
10 -90 10 -53 0 -90 -4 -90 -10z"/>
<path d="M3640 9400 c0 -140 -4 -220 -10 -220 -5 0 -10 -7 -10 -16 0 -15 -52
-74 -65 -74 -7 0 -25 -14 -60 -47 -13 -13 -27 -23 -30 -23 -4 0 -13 -6 -20
-12 -32 -29 -45 -38 -52 -38 -5 0 -15 -9 -23 -20 -8 -11 -20 -20 -27 -20 -7 0
-23 -11 -37 -25 -14 -14 -28 -25 -31 -25 -7 0 -24 -14 -60 -47 -13 -13 -27
-23 -30 -23 -4 0 -13 -6 -20 -12 -31 -28 -44 -38 -51 -38 -9 0 -54 -53 -54
-62 0 -5 -5 -8 -11 -8 -14 0 -39 -25 -39 -39 0 -6 -4 -11 -10 -11 -5 0 -10 -9
-10 -20 0 -11 -7 -20 -15 -20 -9 0 -15 -9 -15 -25 0 -14 -4 -25 -10 -25 -5 0
-10 -9 -10 -20 0 -20 7 -20 741 -20 793 0 769 -2 769 48 0 22 30 85 43 90 4 2
7 15 7 28 0 13 5 24 10 24 6 0 10 9 10 20 0 11 4 20 9 20 5 0 12 11 15 25 4
14 11 25 16 25 6 0 10 9 10 20 0 11 5 20 10 20 6 0 10 5 10 11 0 6 6 17 13 24
29 33 37 45 37 54 0 5 6 11 12 13 9 3 8 9 -4 21 -9 9 -19 17 -23 17 -7 0 -24
14 -60 48 -13 12 -27 22 -30 22 -4 0 -13 6 -20 13 -30 26 -44 37 -50 37 -12 0
-53 47 -59 68 -4 12 -12 22 -17 22 -5 0 -9 91 -9 220 l0 220 -370 0 -370 0 0
-220z"/>
<path d="M9740 8864 c-19 -7 -52 -13 -72 -13 -21 -1 -38 -5 -38 -11 0 -5 -13
-10 -30 -10 -16 0 -30 -4 -30 -9 0 -5 -11 -12 -25 -15 -14 -4 -25 -11 -25 -16
0 -6 -7 -10 -15 -10 -8 0 -15 -4 -15 -10 0 -5 -7 -10 -15 -10 -18 0 -125 -109
-125 -127 0 -7 -4 -13 -10 -13 -5 0 -10 -7 -10 -15 0 -8 -4 -15 -10 -15 -5 0
-10 -7 -10 -16 0 -8 -7 -22 -15 -30 -8 -9 -15 -26 -15 -40 0 -13 -4 -24 -10
-24 -5 0 -10 -25 -10 -55 0 -30 -4 -55 -10 -55 -6 0 -10 -30 -10 -69 0 -39 5
-73 10 -76 6 -3 10 -46 10 -96 0 -53 4 -89 10 -89 6 0 10 -15 10 -33 0 -18 7
-42 15 -53 8 -10 15 -31 15 -46 0 -16 5 -28 10 -28 6 0 10 -16 10 -35 0 -19 5
-35 10 -35 6 0 10 -11 10 -25 l0 -25 1000 0 1000 0 0 25 c0 16 6 25 15 25 10
0 15 11 15 35 0 19 5 35 10 35 6 0 10 16 10 35 0 19 4 35 9 35 4 0 11 24 14
52 4 29 11 54 17 56 6 2 10 40 10 88 0 49 4 84 10 84 6 0 10 27 10 60 0 33 -4
60 -10 60 -6 0 -10 28 -10 65 0 36 -4 65 -9 65 -5 0 -17 23 -27 50 -10 28 -22
50 -26 50 -4 0 -8 7 -8 14 0 8 -11 27 -25 42 -14 15 -25 31 -25 37 0 13 -62
67 -77 67 -7 0 -13 4 -13 8 0 5 -16 17 -35 28 -19 10 -35 22 -35 26 0 5 -7 8
-15 8 -8 0 -15 5 -15 10 0 6 -13 10 -30 10 -16 0 -30 5 -30 10 0 6 -20 10 -44
10 -24 0 -58 6 -75 13 -23 10 -45 11 -79 5 -26 -5 -71 -11 -99 -15 -29 -3 -53
-9 -53 -14 0 -5 -11 -9 -25 -9 -14 0 -25 -4 -25 -10 0 -5 -7 -10 -15 -10 -9 0
-33 -11 -55 -25 -22 -14 -46 -25 -55 -25 -8 0 -15 -4 -15 -10 0 -5 -7 -10 -15
-10 -9 0 -33 -11 -55 -25 -33 -21 -52 -25 -114 -25 -70 0 -134 19 -144 43 -2
4 -12 7 -23 7 -10 0 -19 5 -19 10 0 6 -11 10 -25 10 -14 0 -25 3 -25 8 0 10
-58 42 -76 42 -8 0 -14 5 -14 10 0 6 -11 10 -25 10 -14 0 -25 5 -25 10 0 6
-18 10 -39 10 -22 0 -50 4 -63 9 -44 16 -103 18 -138 5z"/>
<path d="M2890 7945 l0 -185 770 0 770 0 0 25 c0 14 -4 25 -10 25 -5 0 -10 19
-10 43 -1 23 -7 53 -15 67 -9 17 -14 56 -15 118 l0 92 -745 0 -745 0 0 -185z"/>
<path d="M2280 7373 c-19 -10 -36 -21 -38 -25 -2 -4 -12 -8 -22 -8 -10 0 -22
-9 -25 -20 -3 -11 -11 -20 -16 -20 -5 0 -9 -11 -9 -25 0 -14 -4 -25 -10 -25
-6 0 -10 -85 -10 -235 0 -150 4 -235 10 -235 6 0 10 -9 10 -21 0 -19 4 -26 37
-61 24 -26 42 -38 58 -38 8 0 15 -4 15 -10 0 -7 430 -10 1270 -10 840 0 1270
3 1270 10 0 6 -9 10 -20 10 -11 0 -20 7 -20 15 0 8 -7 15 -15 15 -8 0 -15 5
-15 10 0 6 -7 10 -15 10 -9 0 -28 11 -43 25 -15 14 -31 25 -37 25 -6 0 -17 9
-25 20 -8 11 -18 20 -23 20 -5 0 -15 6 -22 13 -33 29 -45 37 -55 37 -5 0 -10
5 -10 10 0 6 -7 10 -16 10 -9 0 -27 11 -40 25 -13 14 -30 25 -39 25 -8 0 -15
5 -15 10 0 6 -5 10 -11 10 -6 0 -17 6 -24 13 -32 28 -45 37 -52 37 -5 0 -15 9
-23 20 -8 11 -20 20 -27 20 -7 0 -23 11 -37 25 -14 14 -32 25 -41 25 -8 0 -15
5 -15 10 0 6 -7 10 -15 10 -8 0 -15 7 -15 15 0 8 -9 15 -20 15 -11 0 -20 5
-20 10 0 6 -5 10 -11 10 -6 0 -17 6 -24 13 -33 29 -45 37 -55 37 -5 0 -10 4
-10 8 0 5 -16 17 -35 28 -19 10 -35 22 -35 26 0 5 -7 8 -15 8 -8 0 -15 5 -15
10 0 6 -7 10 -16 10 -9 0 -27 11 -40 25 -13 14 -28 25 -35 25 -6 0 -19 8 -28
18 -15 18 -53 19 -746 25 -673 6 -733 5 -765 -10z"/>
<path d="M4470 7360 c11 -11 27 -20 35 -20 8 0 15 -4 15 -10 0 -5 5 -10 11
-10 7 0 22 -11 35 -25 13 -14 30 -25 39 -25 8 0 15 -4 15 -9 0 -5 15 -16 33
-24 17 -9 39 -25 47 -36 8 -12 21 -21 30 -21 19 -1 50 -24 50 -39 0 -6 9 -11
20 -11 12 0 32 -10 45 -22 40 -38 54 -48 65 -48 5 0 10 -4 10 -10 0 -5 7 -10
15 -10 8 0 15 -4 15 -10 0 -5 9 -10 20 -10 11 0 20 -7 20 -15 0 -8 7 -15 15
-15 8 0 15 -4 15 -10 0 -5 7 -10 16 -10 9 0 27 -11 40 -25 13 -14 30 -25 39
-25 8 0 15 -4 15 -10 0 -5 5 -10 10 -10 10 0 22 -8 55 -37 7 -7 17 -13 22 -13
5 0 15 -9 23 -20 8 -11 22 -20 32 -20 10 0 18 -7 18 -15 0 -8 7 -15 15 -15 8
0 15 -4 15 -10 0 -5 9 -10 20 -10 11 0 20 -4 20 -10 0 -5 7 -10 15 -10 8 0 15
-7 15 -15 0 -8 9 -15 20 -15 11 0 20 -4 20 -10 0 -5 5 -10 11 -10 6 0 17 -6
24 -12 32 -29 45 -38 52 -38 5 0 15 -9 23 -20 8 -11 22 -20 31 -20 9 0 25 -11
35 -25 10 -14 27 -25 37 -25 20 0 47 -22 47 -39 0 -6 9 -11 20 -11 12 0 32
-10 45 -22 40 -38 54 -48 65 -48 5 0 10 -4 10 -10 0 -5 7 -10 15 -10 8 0 15
-4 15 -10 0 -5 9 -10 20 -10 11 0 20 -7 20 -15 0 -8 7 -15 15 -15 8 0 15 -4
15 -10 0 -5 7 -10 16 -10 9 0 27 -11 40 -25 13 -14 30 -25 39 -25 8 0 15 -4
15 -10 0 -5 5 -10 11 -10 6 0 17 -6 24 -12 33 -30 45 -38 55 -38 5 0 10 -4 10
-9 0 -5 13 -14 29 -21 16 -6 38 -23 48 -36 10 -13 26 -24 35 -24 10 0 18 -4
18 -10 0 -5 7 -10 15 -10 8 0 15 -7 15 -15 0 -8 9 -15 20 -15 11 0 20 -4 20
-10 0 -5 7 -10 15 -10 8 0 15 -3 15 -8 0 -4 16 -16 35 -26 19 -11 35 -22 35
-26 0 -4 13 -13 29 -20 16 -6 38 -23 48 -36 10 -13 26 -24 36 -24 10 0 29 -11
43 -25 14 -14 30 -25 36 -25 6 0 18 -8 27 -18 9 -10 31 -27 49 -37 17 -11 32
-22 32 -25 0 -4 16 -12 35 -20 19 -8 35 -20 35 -27 0 -7 7 -13 15 -13 8 0 15
-4 15 -10 0 -5 7 -10 15 -10 9 0 28 -11 43 -25 15 -14 32 -25 39 -25 7 0 13
-4 13 -10 0 -5 5 -10 10 -10 10 0 22 -8 55 -37 7 -7 18 -13 24 -13 6 0 11 -4
11 -9 0 -5 9 -12 20 -16 11 -3 33 -19 49 -36 16 -16 37 -29 45 -29 9 0 16 -4
16 -10 0 -5 5 -10 11 -10 6 0 17 -6 24 -12 31 -28 44 -38 50 -38 4 0 13 -6 20
-12 33 -30 45 -38 55 -38 5 0 10 -4 10 -9 0 -5 16 -15 35 -22 19 -7 35 -17 35
-22 0 -14 27 -37 45 -37 9 0 27 -11 41 -25 14 -14 30 -25 37 -25 7 0 19 -9 27
-20 8 -11 20 -20 27 -20 7 0 23 -10 35 -23 13 -13 38 -30 56 -38 17 -7 32 -20
32 -26 0 -7 7 -13 15 -13 8 0 15 -4 15 -10 0 -5 7 -10 15 -10 9 0 28 -11 43
-25 15 -14 32 -25 39 -25 7 0 13 -4 13 -10 0 -5 5 -10 11 -10 6 0 17 -6 24
-12 33 -30 45 -38 55 -38 5 0 10 -4 10 -9 0 -5 9 -12 20 -16 11 -3 33 -19 49
-36 16 -16 37 -29 45 -29 9 0 16 -4 16 -10 0 -5 5 -10 11 -10 6 0 17 -6 24
-12 33 -30 45 -38 55 -38 5 0 10 -4 10 -9 0 -5 8 -12 18 -15 9 -3 30 -17 46
-31 17 -14 40 -28 53 -31 13 -4 23 -11 23 -16 0 -15 27 -38 45 -38 9 0 27 -11
41 -25 14 -14 30 -25 37 -25 7 0 19 -9 27 -20 8 -11 19 -20 25 -20 6 0 22 -11
37 -25 15 -14 34 -25 43 -25 23 0 45 25 45 49 0 12 5 21 10 21 6 0 10 9 10 20
0 11 4 20 9 20 5 0 12 11 15 25 4 14 11 25 16 25 6 0 10 11 10 25 0 14 5 25
10 25 6 0 10 9 10 20 0 11 4 20 9 20 5 0 12 11 15 25 4 14 11 25 16 25 6 0 10
11 10 25 0 14 5 25 10 25 6 0 10 9 10 20 0 11 4 20 9 20 5 0 12 11 15 25 4 14
11 25 16 25 6 0 10 11 10 25 0 14 5 25 10 25 6 0 10 9 10 20 0 11 4 20 9 20 5
0 12 11 15 25 4 14 11 25 16 25 6 0 10 11 10 25 0 14 5 25 10 25 6 0 10 9 10
20 0 11 4 20 9 20 5 0 12 11 15 25 4 14 11 25 16 25 6 0 10 11 10 25 0 14 5
25 10 25 6 0 10 9 10 20 0 11 4 20 9 20 5 0 12 11 15 25 4 14 11 25 16 25 6 0
10 11 10 25 0 14 5 25 10 25 6 0 10 9 10 20 0 11 4 20 9 20 5 0 12 11 15 25 4
14 11 25 16 25 6 0 10 11 10 25 0 14 5 25 10 25 6 0 10 9 10 20 0 11 4 20 9
20 5 0 12 11 15 25 4 14 11 25 16 25 6 0 10 11 10 25 0 14 5 25 10 25 6 0 10
9 10 20 0 11 4 20 9 20 5 0 12 11 15 25 4 14 11 25 16 25 6 0 10 11 10 25 0
14 5 25 10 25 6 0 10 9 10 20 0 11 4 20 9 20 5 0 12 11 15 25 4 14 11 25 16
25 6 0 10 11 10 25 0 14 5 25 10 25 6 0 10 9 10 20 0 11 4 20 8 20 4 0 16 23
27 50 11 28 23 50 27 50 4 0 8 9 8 20 0 11 4 20 8 20 4 0 16 23 27 50 11 28
23 50 27 50 4 0 8 9 8 20 0 11 4 20 8 20 4 0 16 23 27 50 11 28 23 50 27 50 4
0 8 9 8 20 0 11 4 20 8 20 4 0 16 22 27 50 11 28 23 50 27 50 4 0 8 9 8 20 0
11 4 20 8 20 4 0 16 23 27 50 11 28 23 50 27 50 4 0 8 9 8 20 0 11 4 20 8 20
4 0 16 23 27 50 11 28 23 50 27 50 4 0 8 9 8 20 0 11 4 20 8 20 5 0 15 18 22
41 8 23 20 43 27 46 7 3 13 16 13 29 0 13 4 24 8 24 5 0 15 18 22 41 8 23 20
43 27 46 7 3 13 16 13 29 0 13 4 24 8 24 5 0 15 18 22 41 8 23 20 43 27 46 7
3 13 16 13 29 0 13 4 24 8 24 4 0 15 20 24 45 l17 45 -2789 0 -2790 0 20 -20z"/>
<path d="M10470 7360 c0 -11 -4 -20 -10 -20 -5 0 -10 -7 -10 -15 0 -9 -11 -33
-25 -55 -14 -22 -25 -46 -25 -55 0 -8 -4 -15 -10 -15 -5 0 -10 -7 -10 -15 0
-9 -11 -33 -25 -55 -14 -22 -25 -46 -25 -55 0 -8 -4 -15 -10 -15 -5 0 -10 -7
-10 -15 0 -9 -11 -33 -25 -55 -14 -22 -25 -46 -25 -55 0 -8 -4 -15 -10 -15 -5
0 -10 -7 -10 -15 0 -9 -11 -33 -25 -55 -14 -22 -25 -46 -25 -55 0 -8 -4 -15
-10 -15 -5 0 -10 -9 -10 -19 0 -11 -3 -21 -7 -23 -11 -4 -43 -67 -43 -84 0
-22 1924 -21 1946 1 9 8 24 15 35 15 10 0 19 5 19 10 0 6 5 10 11 10 14 0 39
25 39 39 0 6 5 11 10 11 6 0 10 9 10 19 0 11 7 26 15 35 12 12 15 50 15 216 0
166 -3 204 -15 216 -8 9 -15 25 -15 38 0 12 -9 28 -20 36 -11 8 -20 20 -20 27
0 7 -7 13 -15 13 -8 0 -15 5 -15 10 0 6 -13 10 -30 10 -16 0 -30 5 -30 10 0 7
-272 10 -795 10 -788 0 -795 0 -795 -20z"/>
<path d="M2730 6166 c0 -64 4 -106 10 -106 6 0 10 -46 10 -117 0 -65 7 -153
15 -196 8 -43 15 -128 15 -188 0 -66 4 -109 10 -109 6 0 10 -57 10 -150 0 -93
4 -150 10 -150 6 0 10 -46 10 -117 0 -65 7 -153 15 -196 8 -43 15 -128 15
-188 0 -66 4 -109 10 -109 6 0 10 -57 10 -150 0 -93 4 -150 10 -150 6 0 10
-54 10 -141 0 -87 4 -148 12 -162 11 -22 25 -208 34 -464 3 -80 9 -143 15
-143 5 0 9 -57 9 -136 0 -81 4 -144 11 -156 11 -20 24 -188 35 -450 3 -65 9
-118 15 -118 5 0 9 -19 9 -42 0 -24 7 -52 15 -62 8 -11 15 -28 15 -38 0 -10 5
-18 10 -18 6 0 10 -11 10 -25 0 -14 5 -25 10 -25 6 0 10 -11 10 -25 0 -16 6
-25 15 -25 8 0 15 -9 15 -20 0 -11 5 -20 10 -20 6 0 10 -7 10 -15 0 -8 4 -15
8 -15 4 0 16 -14 26 -32 20 -33 111 -128 124 -128 4 0 19 -11 34 -25 15 -14
34 -25 43 -25 8 0 15 -4 15 -10 0 -5 7 -10 15 -10 8 0 15 -4 15 -10 0 -5 11
-12 25 -16 14 -3 25 -10 25 -15 0 -5 14 -9 30 -9 17 0 30 -4 30 -10 0 -5 10
-10 23 -10 13 0 32 -7 43 -15 11 -8 41 -14 72 -15 28 0 52 -4 52 -10 0 -7
1150 -10 3430 -10 2111 0 3430 4 3430 9 0 5 36 13 80 17 44 3 80 11 80 15 0 5
16 9 35 9 19 0 35 5 35 10 0 6 11 10 25 10 14 0 25 3 25 8 0 10 58 42 76 42 8
0 14 5 14 10 0 6 7 10 15 10 9 0 31 16 49 35 19 19 37 35 41 35 8 0 105 97
105 106 0 4 8 14 19 23 10 9 21 26 25 39 4 12 12 22 17 22 5 0 9 9 9 20 0 11
5 20 10 20 6 0 10 7 10 15 0 8 4 15 9 15 5 0 12 16 15 35 4 19 11 35 16 35 6
0 10 16 10 35 0 19 4 35 9 35 11 0 18 60 30 245 6 83 14 141 20 143 7 2 11 55
11 153 0 87 4 149 9 149 6 0 12 64 15 148 8 260 23 456 35 460 7 2 11 53 11
153 0 87 4 149 9 149 6 0 12 64 15 148 8 260 23 456 35 460 7 2 11 53 11 153
0 87 4 149 9 149 6 0 12 65 15 148 11 320 21 455 34 460 9 3 12 43 12 153 0
87 4 149 9 149 6 0 12 65 15 148 3 81 8 180 11 220 l7 72 -861 0 c-854 0 -861
0 -861 -20 0 -11 -4 -20 -10 -20 -5 0 -10 -9 -10 -19 0 -11 -3 -21 -7 -23 -11
-4 -43 -67 -43 -84 0 -8 -4 -14 -10 -14 -5 0 -10 -9 -10 -19 0 -11 -3 -21 -7
-23 -11 -4 -43 -67 -43 -84 0 -8 -4 -14 -10 -14 -5 0 -10 -9 -10 -19 0 -11 -3
-21 -7 -23 -11 -4 -43 -67 -43 -84 0 -8 -4 -14 -10 -14 -5 0 -10 -9 -10 -19 0
-11 -3 -21 -7 -23 -11 -4 -43 -67 -43 -84 0 -8 -4 -14 -10 -14 -5 0 -10 -9
-10 -19 0 -11 -3 -21 -7 -23 -11 -4 -43 -67 -43 -84 0 -8 -4 -14 -10 -14 -5 0
-10 -9 -10 -19 0 -11 -3 -21 -7 -23 -11 -4 -43 -67 -43 -84 0 -8 -4 -14 -10
-14 -5 0 -10 -9 -10 -19 0 -11 -3 -21 -7 -23 -11 -4 -43 -67 -43 -84 0 -8 -4
-14 -10 -14 -5 0 -10 -9 -10 -19 0 -11 -3 -21 -7 -23 -11 -4 -43 -67 -43 -84
0 -8 -4 -14 -10 -14 -5 0 -10 -9 -10 -19 0 -11 -3 -21 -7 -23 -11 -4 -43 -67
-43 -84 0 -8 -3 -14 -7 -14 -12 0 -33 -50 -33 -76 0 -23 -29 -86 -42 -92 -5
-2 -8 -12 -8 -23 0 -10 -4 -19 -10 -19 -5 0 -10 -6 -10 -14 0 -7 -7 -19 -15
-26 -8 -7 -15 -21 -15 -31 0 -11 -4 -19 -10 -19 -5 0 -10 -7 -10 -15 0 -8 -4
-15 -10 -15 -5 0 -10 -9 -10 -20 0 -11 -4 -20 -10 -20 -5 0 -12 -11 -16 -25
-3 -14 -10 -25 -15 -25 -5 0 -9 -6 -9 -14 0 -18 -32 -76 -42 -76 -5 0 -8 -11
-8 -25 0 -14 -4 -25 -10 -25 -5 0 -10 -7 -10 -15 0 -8 -4 -15 -10 -15 -5 0
-10 -9 -10 -20 0 -11 -4 -20 -10 -20 -5 0 -12 -11 -16 -25 -3 -14 -10 -25 -15
-25 -5 0 -9 -9 -9 -20 0 -11 -4 -20 -9 -20 -5 0 -12 -11 -15 -25 -4 -14 -11
-25 -16 -25 -6 0 -10 -7 -10 -15 0 -8 -4 -15 -10 -15 -5 0 -10 -9 -10 -20 0
-11 -4 -20 -10 -20 -5 0 -10 -8 -10 -18 0 -18 -33 -52 -50 -52 -6 0 -10 -4
-10 -10 0 -6 -32 -10 -75 -10 -43 0 -75 4 -75 10 0 6 -10 10 -21 10 -12 0 -36
16 -55 35 -18 19 -40 35 -49 35 -16 0 -27 8 -70 47 -13 13 -29 23 -35 23 -5 0
-10 5 -10 10 0 6 -6 10 -13 10 -7 0 -24 11 -39 25 -15 14 -33 25 -40 25 -18 1
-48 25 -48 39 0 6 -9 11 -20 11 -11 0 -20 5 -20 10 0 6 -7 10 -15 10 -8 0 -15
3 -15 8 0 4 -16 16 -35 26 -19 11 -35 23 -35 28 0 4 -9 8 -20 8 -11 0 -20 5
-20 10 0 6 -7 10 -15 10 -8 0 -15 7 -15 15 0 8 -9 15 -20 15 -11 0 -20 5 -20
10 0 6 -7 10 -15 10 -8 0 -15 3 -15 8 0 4 -16 16 -35 26 -19 11 -35 23 -35 28
0 4 -7 8 -15 8 -8 0 -15 5 -15 10 0 6 -6 10 -14 10 -7 0 -22 11 -32 25 -10 14
-24 25 -31 25 -7 0 -13 5 -13 10 0 6 -8 10 -19 10 -10 0 -30 11 -45 25 -15 14
-31 25 -37 25 -5 0 -9 5 -9 10 0 6 -7 10 -15 10 -8 0 -15 5 -15 10 0 6 -9 10
-19 10 -11 0 -26 7 -35 15 -8 8 -17 15 -20 15 -6 0 -44 31 -72 58 -7 6 -17 12
-23 12 -6 0 -11 4 -11 8 0 5 -11 15 -25 22 -14 7 -25 19 -25 25 0 6 -16 17
-35 25 -19 8 -35 17 -35 21 0 4 -10 11 -22 15 -12 3 -32 17 -45 30 -13 13 -28
24 -32 24 -4 0 -22 14 -39 30 -18 17 -37 30 -44 30 -18 1 -48 25 -48 39 0 6
-10 11 -21 11 -12 0 -29 8 -38 19 -9 10 -26 21 -38 25 -13 4 -23 12 -23 17 0
5 -7 9 -16 9 -9 0 -31 16 -50 35 -18 19 -40 35 -49 35 -9 0 -27 10 -40 23 -40
37 -54 47 -65 47 -5 0 -10 4 -10 8 0 4 -15 16 -32 27 -18 10 -38 24 -44 29 -6
6 -23 20 -38 31 -16 11 -33 25 -40 30 -6 6 -27 17 -46 25 -19 8 -40 19 -47 25
-34 29 -43 35 -48 35 -4 0 -13 6 -20 13 -32 28 -45 37 -52 37 -5 0 -15 9 -23
20 -8 11 -22 20 -31 20 -10 0 -26 11 -37 25 -11 14 -27 25 -36 25 -9 0 -16 5
-16 10 0 6 -5 10 -11 10 -6 0 -17 6 -24 13 -32 28 -45 37 -52 37 -5 0 -15 9
-23 20 -8 11 -20 20 -27 20 -7 0 -23 11 -37 25 -14 14 -29 25 -33 25 -5 0 -20
11 -35 25 -15 14 -32 25 -38 25 -5 0 -10 5 -10 10 0 6 -9 10 -20 10 -11 0 -20
7 -20 15 0 8 -7 15 -15 15 -8 0 -15 5 -15 10 0 6 -9 10 -20 10 -11 0 -20 4
-20 8 0 5 -16 17 -35 28 -19 10 -35 22 -35 26 0 5 -7 8 -15 8 -8 0 -15 5 -15
10 0 6 -7 10 -16 10 -9 0 -27 11 -40 25 -13 14 -30 25 -39 25 -8 0 -15 4 -15
8 0 5 -16 17 -35 28 -19 10 -35 22 -35 26 0 5 -5 8 -10 8 -11 0 -25 10 -65 48
-13 12 -29 22 -35 22 -5 0 -10 5 -10 10 0 6 -9 10 -19 10 -11 0 -21 5 -23 12
-4 10 -303 13 -1331 16 l-1327 4 0 -106z"/>
</g>
</svg>
